<svg xmlns="http://www.w3.org/2000/svg"  viewBox="0 0 100 100" width="50px" height="50x" baseProfile="basic"><path d="M53,15c-20.953,0-38,17.047-38,38s17.047,38,38,38s38-17.047,38-38S73.953,15,53,15z" opacity=".35"/><circle cx="50" cy="50" r="37" fill="#545454"/><path fill="#fffeee" d="M40,86V74c0-5.523,4.477-10,10-10h0c5.523,0,10,4.477,10,10v12H40z"/><path fill="#fffeee" d="M68.498,38.438c2.161-2.661,3.833-9.382,1.085-11.021c-2.556-1.526-6.908,1.46-9.459,3.982 C57.093,29.893,53.652,29,50,29c-3.641,0-7.072,0.888-10.097,2.385c-2.552-2.519-6.893-5.491-9.445-3.969 c-2.738,1.634-1.086,8.314,1.064,10.993C29.297,41.479,28,44.999,28,48.5C28,58.165,37.85,64,50,64s22-5.835,22-15.5 C72,45.01,70.711,41.501,68.498,38.438z"/><path fill="#fffeee" d="M21.083,61.556c0,0,2.917-1.194,5.472,0.944c2.556,2.139,6.472,8.056,14.361,6.611l-1.361,6	c0,0-7.778,0.306-10.111-2.611S22.611,61.917,21.083,61.556z"/><linearGradient id="Nalo5Mk7CAeA2OvpAV1dMa" x1="43.235" x2="56.569" y1="11.723" y2="87.168" gradientUnits="userSpaceOnUse"><stop offset=".004" stop-color="#ffe8c7"/><stop offset=".439" stop-color="#f7cf94"/><stop offset="1" stop-color="#ebab4d"/></linearGradient><path fill="url(#Nalo5Mk7CAeA2OvpAV1dMa)" d="M50,12c-20.953,0-38,17.047-38,38s17.047,38,38,38s38-17.047,38-38S70.953,12,50,12z M14.113,52.717c1.561-0.445,5.917-1.287,13.561,0.026c0.171,0.536,0.373,1.058,0.607,1.567c-6.894-0.73-11.674-0.002-13.962,0.415	C14.232,54.061,14.164,53.392,14.113,52.717z M29,48.5c0-3.211,1.152-6.497,3.332-9.504c0.265-0.364,0.252-0.861-0.029-1.213	c-1.369-1.705-2.625-5.555-2.191-7.962c0.139-0.769,0.428-1.288,0.859-1.546c0.315-0.188,0.691-0.274,1.112-0.274	c1.953,0,4.862,1.87,7.118,4.096c0.303,0.299,0.765,0.371,1.146,0.185C43.404,30.768,46.652,30,50,30	c3.357,0,6.614,0.771,9.681,2.294c0.38,0.19,0.844,0.116,1.147-0.185c2.744-2.713,6.456-4.899,8.242-3.834	c0.435,0.26,0.725,0.784,0.862,1.56c0.43,2.428-0.836,6.278-2.211,7.972c-0.285,0.352-0.299,0.85-0.034,1.217	C69.854,42.023,71,45.3,71,48.5C71,57.037,62.364,63,50,63S29,57.037,29,48.5z M72.342,52.693	c7.801-1.312,12.147-0.369,13.543,0.054c-0.05,0.656-0.117,1.307-0.201,1.952c-2.184-0.413-6.934-1.035-13.926-0.473	C71.983,53.728,72.177,53.217,72.342,52.693z M50,14c19.851,0,36,16.149,36,36c0,0.233-0.013,0.463-0.018,0.695	c-1.92-0.508-6.162-1.181-13.149-0.109C72.934,49.906,73,49.214,73,48.5c0-3.408-1.13-6.869-3.274-10.051	c1.482-2.244,2.671-6.172,2.176-8.963c-0.239-1.354-0.864-2.366-1.806-2.928c-2.825-1.686-7.121,0.808-10.163,3.639	C56.774,28.739,53.437,28,50,28c-3.427,0-6.755,0.734-9.904,2.185c-3.038-2.821-7.326-5.312-10.15-3.626	c-0.937,0.559-1.56,1.564-1.802,2.908c-0.508,2.817,0.652,6.681,2.151,8.951C28.137,41.607,27,45.079,27,48.5	c0,0.731,0.071,1.439,0.175,2.136c-6.89-1.08-11.145-0.472-13.159,0.034C14.013,50.446,14,50.224,14,50C14,30.149,30.149,14,50,14z M14.636,56.707c2.271-0.41,7.368-1.207,14.843-0.277c2.891,4.173,8.157,7.093,14.896,8.135c-1.442,0.863-2.672,2.041-3.589,3.446	c-1.061,0.055-8.335,0.288-10.959-3.573c-3.984-5.858-8.938-4.249-9.147-4.176c-0.323,0.11-0.568,0.379-0.648,0.711	c-0.081,0.331,0.014,0.682,0.251,0.928c0.036,0.038,3.629,3.797,4.887,6.631c2.775,6.246,8.215,7.395,13.831,7.501v8.243	C26.588,80.282,17.1,69.724,14.636,56.707z M39,74.031c-5.753-0.112-9.786-1.32-12.003-6.311c-0.874-1.97-2.649-4.222-3.898-5.678	c1.362,0.159,3.302,0.914,5.074,3.521c2.727,4.009,8.868,4.471,11.578,4.472C39.273,71.267,39,72.601,39,74V74.031z M41,84.861V74	c0-4.963,4.037-9,9-9s9,4.037,9,9v10.861C56.122,85.604,53.107,86,50,86S43.878,85.604,41,84.861z M61,84.275V74	c0-4.009-2.162-7.513-5.375-9.436c6.784-1.05,12.071-4.003,14.949-8.221c7.526-0.741,12.65-0.066,14.794,0.336	C82.913,69.709,73.421,80.279,61,84.275z"/></svg>